<?xml version="1.0" encoding="UTF-8" standalone="no"?>
<!-- Created with Inkscape (http://www.inkscape.org/) -->

<svg
   width="150mm"
   height="100mm"
   viewBox="0 0 150 100"
   version="1.1"
   id="svg1"
   xml:space="preserve"
   xmlns="http://www.w3.org/2000/svg"
   xmlns:svg="http://www.w3.org/2000/svg"><defs
     id="defs1" /><g
     id="layer1"><rect
       style="opacity:0;fill:#19ff00;fill-opacity:1;stroke:none;stroke-width:2.73775;stroke-opacity:1;paint-order:stroke fill markers"
       id="rect5"
       width="150"
       height="150"
       x="115.52824"
       y="18.999512"
       ry="4.3758035" /><g
       id="g5"><g
         id="g6"
         transform="translate(0.91613388,-47.37805)"><rect
           style="opacity:1;fill:#ffffff;fill-opacity:1;stroke:#000000;stroke-width:4.90959;stroke-opacity:1;paint-order:stroke fill markers"
           id="rect1"
           width="106.98731"
           height="69.192162"
           x="20.59021"
           y="109.91855"
           ry="22.701492" /><rect
           style="opacity:1;fill:#494949;fill-opacity:1;stroke:#000000;stroke-width:3;stroke-opacity:1;paint-order:stroke fill markers"
           id="rect2"
           width="44.195938"
           height="57.987576"
           x="51.985901"
           y="66.998291"
           ry="22.097969" /><ellipse
           style="opacity:1;fill:#ffffff;fill-opacity:1;stroke:#000000;stroke-width:2.41568;stroke-opacity:1;paint-order:stroke fill markers"
           id="path2"
           cx="73.832306"
           cy="81.660309"
           rx="42.875736"
           ry="27.090826" /><rect
           style="opacity:1;fill:#616161;fill-opacity:1;stroke:#000000;stroke-width:3.12633;stroke-opacity:1;paint-order:stroke fill markers"
           id="rect3"
           width="66.498375"
           height="28.406734"
           x="40.834686"
           y="69.248352"
           ry="14.203367" /><path
           style="opacity:1;fill:#28e2ff;fill-opacity:1;stroke:none;stroke-width:5.91731;stroke-opacity:1;paint-order:stroke fill markers"
           id="path3"
           d="m 49.712804,80.535621 a 7.9643273,5.5896673 0 0 1 8.031197,-5.456132 7.9643273,5.5896673 0 0 1 7.895024,5.553163 l -7.964159,0.03629 z" /><path
           style="fill:#28e2ff;fill-opacity:1;stroke:none;stroke-width:5.91731;stroke-opacity:1;paint-order:stroke fill markers"
           id="path3-7"
           d="m 83.155187,80.773963 a 7.9643273,5.5896673 0 0 1 8.031196,-5.456132 7.9643273,5.5896673 0 0 1 7.895025,5.553164 l -7.964159,0.03629 z" /><path
           style="fill:#28e2ff;fill-opacity:1;stroke:none;stroke-width:6.31175;stroke-opacity:1;paint-order:stroke fill markers"
           id="path3-9-7"
           d="m -83.197501,-89.301609 a 9.1150112,5.5568347 0 0 1 9.191541,-5.424084 9.1150112,5.5568347 0 0 1 9.035696,5.520546 l -9.114819,0.03608 z"
           transform="scale(-1)" /><path
           style="fill:#ff3b47;fill-opacity:1;stroke-width:0.962468;stroke-dashoffset:154.032;paint-order:stroke fill markers"
           id="path1"
           d="m 72.832957,57.223604 1.91847,6.77813 1.91846,6.77812 h -3.83693 -3.83694 l 1.91847,-6.77812 z" /><path
           style="fill:#ff3b47;fill-opacity:1;stroke-width:0.819861;stroke-dashoffset:154.032;paint-order:stroke fill markers"
           id="path2-0"
           d="m 75.729597,83.425851 -1.79943,-8.326397 -1.79943,-8.32635 3.55259,-0.0728 3.5526,-0.0728 -1.75317,8.39894 z" /><rect
           style="fill:#ffffff;fill-opacity:1;stroke:#000000;stroke-width:3;stroke-opacity:1;paint-order:stroke fill markers"
           id="rect4"
           width="23.143114"
           height="13.544587"
           x="32.866791"
           y="125.10104"
           ry="1.7597444" /><text
           xml:space="preserve"
           style="font-size:7.05556px;line-height:1.25;font-family:'Arial Black';-inkscape-font-specification:'Arial Black, ';text-align:center;text-anchor:middle;stroke-width:0.264583"
           x="44.383209"
           y="133.96866"
           id="text4"><tspan
             id="tspan4"
             style="font-size:7.05556px;stroke-width:0.264583"
             x="44.383209"
             y="133.96866">Flash</tspan></text></g></g></g></svg>
