<?xml version="1.0" encoding="UTF-8" standalone="no"?>
<!-- Created with Inkscape (http://www.inkscape.org/) -->

<svg
   width="150mm"
   height="100mm"
   viewBox="0 0 150 100"
   version="1.1"
   id="svg1"
   xml:space="preserve"
   xmlns="http://www.w3.org/2000/svg"
   xmlns:svg="http://www.w3.org/2000/svg"><defs
     id="defs1" /><g
     id="layer1"><rect
       style="opacity:0;fill:#19ff00;fill-opacity:1;stroke:none;stroke-width:2.73775;stroke-opacity:1;paint-order:stroke fill markers"
       id="rect5"
       width="150"
       height="150"
       x="115.52824"
       y="18.999512"
       ry="4.3758035" /><g
       id="g5"><g
         id="g6"
         transform="translate(0.91613388,-47.37805)"><rect
           style="opacity:1;fill:#ffffff;fill-opacity:1;stroke:#000000;stroke-width:4.90959;stroke-opacity:1;paint-order:stroke fill markers"
           id="rect1"
           width="106.98731"
           height="69.192162"
           x="20.59021"
           y="109.91855"
           ry="22.701492" /><rect
           style="opacity:1;fill:#494949;fill-opacity:1;stroke:#000000;stroke-width:3;stroke-opacity:1;paint-order:stroke fill markers"
           id="rect2"
           width="44.195938"
           height="57.987576"
           x="51.985901"
           y="66.998291"
           ry="22.097969" /><ellipse
           style="opacity:1;fill:#ffffff;fill-opacity:1;stroke:#000000;stroke-width:2.41568;stroke-opacity:1;paint-order:stroke fill markers"
           id="path2"
           cx="73.832306"
           cy="81.660309"
           rx="42.875736"
           ry="27.090826" /><rect
           style="opacity:1;fill:#616161;fill-opacity:1;stroke:#000000;stroke-width:3.12633;stroke-opacity:1;paint-order:stroke fill markers"
           id="rect3"
           width="66.498375"
           height="28.406734"
           x="40.834686"
           y="69.248352"
           ry="14.203367" /><path
           style="opacity:1;fill:#28e2ff;fill-opacity:1;stroke:none;stroke-width:5.91731;stroke-opacity:1;paint-order:stroke fill markers"
           id="path3"
           d="m 49.712804,80.535621 a 7.9643273,5.5896673 0 0 1 8.031197,-5.456132 7.9643273,5.5896673 0 0 1 7.895024,5.553163 l -7.964159,0.03629 z" /><path
           style="fill:#28e2ff;fill-opacity:1;stroke:none;stroke-width:5.91731;stroke-opacity:1;paint-order:stroke fill markers"
           id="path3-7"
           d="m 83.155187,80.773963 a 7.9643273,5.5896673 0 0 1 8.031196,-5.456132 7.9643273,5.5896673 0 0 1 7.895025,5.553164 l -7.964159,0.03629 z" /><path
           style="fill:#28e2ff;fill-opacity:1;stroke:none;stroke-width:6.31175;stroke-opacity:1;paint-order:stroke fill markers"
           id="path3-9-7"
           d="m -83.197501,-89.301609 a 9.1150112,5.5568347 0 0 1 9.191541,-5.424084 9.1150112,5.5568347 0 0 1 9.035696,5.520546 l -9.114819,0.03608 z"
           transform="scale(-1)" /><path
           style="fill:#ff3b47;fill-opacity:1;stroke-width:0.962468;stroke-dashoffset:154.032;paint-order:stroke fill markers"
           id="path1"
           d="m 72.832957,57.223604 1.91847,6.77813 1.91846,6.77812 h -3.83693 -3.83694 l 1.91847,-6.77812 z" /><path
           style="fill:#ff3b47;fill-opacity:1;stroke-width:0.819861;stroke-dashoffset:154.032;paint-order:stroke fill markers"
           id="path2-0"
           d="m 75.729597,83.425851 -1.79943,-8.326397 -1.79943,-8.32635 3.55259,-0.0728 3.5526,-0.0728 -1.75317,8.39894 z" /><rect
           style="fill:#ffffff;fill-opacity:1;stroke:#000000;stroke-width:3;stroke-opacity:1;paint-order:stroke fill markers"
           id="rect4"
           width="23.143114"
           height="13.544587"
           x="32.866791"
           y="125.10104"
           ry="1.7597444" /><text
           xml:space="preserve"
           style="font-size:7.05556px;line-height:1.25;font-family:'Arial Black';-inkscape-font-specification:'Arial Black, ';text-align:center;text-anchor:middle;stroke-width:0.264583"
           x="44.383209"
           y="133.96866"
           id="text4"><tspan
             id="tspan4"
             style="font-size:7.05556px;stroke-width:0.264583"
             x="44.383209"
             y="133.96866">Flash</tspan></text></g><path
         style="fill:#11e400;fill-opacity:1;stroke:#000000;stroke-width:0.264583px;stroke-linecap:butt;stroke-linejoin:miter;stroke-opacity:1"
         d="m 107.60529,61.628485 4.6955,-5.771557 11.24965,-2.739044 9.88012,1.858637 7.33673,5.478087 4.3042,13.401752 -2.83686,10.760527 -7.82584,7.923662 -12.61916,2.641222 -11.83659,-6.16285 -5.67373,-8.021484 -0.68476,-8.5106 1.66299,-8.804069 z"
         id="path5" /><path
         style="fill:#000000"
         d="m 117.65974,98.242916 c -0.5938,-0.29392 -1.05992,-0.77272 -2.11473,-2.17221 -1.64398,-2.18119 -1.87738,-2.30305 -4.74039,-2.47499 -1.173,-0.0704 -2.08983,-0.16707 -2.355,-0.24818 -0.82747,-0.25309 -1.39369,-0.83966 -1.71733,-1.77905 -0.0661,-0.19169 -0.23335,-1.02374 -0.37178,-1.84901 -0.47192,-2.81329 -0.72378,-3.18213 -3.07434,-4.50229 -1.74501,-0.98006 -2.42002,-1.60495 -2.65051,-2.45369 -0.16702,-0.61505 -0.0371,-1.36526 0.5344,-3.08637 0.50621,-1.5244 0.53712,-1.66366 0.53989,-2.4324 0.003,-0.77278 -0.0137,-0.84869 -0.31431,-1.45126 -0.17449,-0.34971 -0.59165,-1.05841 -0.92703,-1.57489 -0.864653,-1.33154 -1.118443,-1.89845 -1.169533,-2.61247 -0.0762,-1.06455 0.16237,-1.44244 2.176973,-3.44869 1.38782,-1.38207 1.62809,-1.76541 1.72187,-2.74727 0.0346,-0.36243 0.0114,-1.21629 -0.0548,-2.01419 -0.20956,-2.52713 0.002,-3.34149 1.04354,-4.02196 0.54917,-0.35869 0.87374,-0.48273 2.48236,-0.94862 2.49827,-0.72357 2.88264,-1.07426 3.9145,-3.57144 0.99506,-2.40813 1.65288,-3.04457 3.14685,-3.04457 0.27746,0 1.18087,0.13616 2.00757,0.30257 2.23043,0.44897 2.98386,0.40509 3.98764,-0.23224 0.18781,-0.11925 0.84088,-0.627542 1.45126,-1.129543 1.40505,-1.155563 2.06444,-1.501834 2.85984,-1.501834 0.79541,0 1.45479,0.346271 2.85985,1.501834 0.61038,0.502001 1.26345,1.010293 1.45126,1.129543 1.00378,0.63733 1.75721,0.68121 3.98764,0.23224 0.8267,-0.16641 1.73011,-0.30257 2.00757,-0.30257 1.49397,0 2.15179,0.63644 3.14685,3.04457 0.75938,1.83778 1.2345,2.50245 2.10165,2.94019 0.27145,0.13703 1.08723,0.42109 1.81285,0.63125 1.60862,0.46589 1.93319,0.58993 2.48236,0.94862 1.04181,0.68047 1.2531,1.49483 1.04354,4.02196 -0.0662,0.7979 -0.0894,1.65176 -0.0548,2.01419 0.0938,0.98186 0.33405,1.3652 1.72187,2.74727 2.00952,2.00119 2.25384,2.38682 2.1768,3.4358 -0.0521,0.71016 -0.32978,1.33365 -1.16903,2.62536 -0.33556,0.51648 -0.75287,1.22518 -0.92736,1.57489 -0.30066,0.60257 -0.3171,0.67848 -0.31431,1.45126 0.003,0.76874 0.0337,0.908 0.53989,2.4324 0.7458,2.24593 0.77938,2.9298 0.18714,3.81162 -0.32245,0.48012 -1.0448,1.02165 -2.31259,1.73368 -1.76125,0.98918 -2.35808,1.56248 -2.67524,2.56972 -0.0739,0.23477 -0.24849,1.10206 -0.38793,1.92733 -0.13944,0.82527 -0.30757,1.65732 -0.37361,1.84901 -0.32364,0.93939 -0.88986,1.52596 -1.71733,1.77905 -0.26517,0.0811 -1.182,0.17773 -2.355,0.24818 -2.86301,0.17194 -3.09641,0.2938 -4.74039,2.47499 -1.48003,1.96367 -1.98795,2.35132 -3.07643,2.34801 -0.70336,-0.002 -1.15905,-0.15546 -2.98229,-1.00342 -1.33942,-0.62295 -1.84785,-0.78752 -2.433,-0.78752 -0.58514,0 -1.09357,0.16457 -2.43299,0.78752 -1.82749,0.84993 -2.27822,1.00129 -2.9879,1.00335 -0.43591,0.001 -0.69457,-0.0463 -0.95609,-0.17573 z m 8.40785,-5.29063 c 4.41001,-0.4789 8.39896,-2.39298 11.54649,-5.54051 4.6157,-4.6157 6.53513,-11.01665 5.24176,-17.48034 -1.03803,-5.18761 -4.39242,-9.87935 -9.04465,-12.6506 -5.94473,-3.54119 -13.6042,-3.54119 -19.54893,0 -2.73695,1.63035 -5.14876,4.04217 -6.77912,6.77912 -3.54118,5.94473 -3.54118,13.6042 0,19.54893 1.63036,2.73694 4.04217,5.14876 6.77912,6.77912 2.22205,1.32364 5.0173,2.26361 7.59757,2.55488 0.97445,0.10999 3.2349,0.11504 4.20776,0.009 z m 1.42655,-6.5391 c -3.18671,-0.17124 -4.54976,-0.2984 -5.72846,-0.53439 -0.69946,-0.14003 -1.96255,-0.37512 -2.80686,-0.5224 -0.84432,-0.14728 -1.56461,-0.28601 -1.60066,-0.30829 -0.0768,-0.0475 -0.0902,-11.30606 -0.0137,-11.5055 0.0368,-0.0959 0.16501,-0.13503 0.44257,-0.13503 1.23712,0 2.34681,-1.43937 3.94892,-5.1221 0.64034,-1.47196 1.02693,-2.07738 1.6375,-2.56442 1.86546,-1.48804 2.41113,-2.69028 2.73857,-6.03373 0.0654,-0.66757 0.16567,-1.27015 0.22286,-1.33906 0.1723,-0.20762 0.56663,-0.24118 1.13196,-0.0964 1.43431,0.36745 2.33952,1.47582 2.56174,3.13667 0.18057,1.34957 -0.0949,2.50277 -1.09325,4.57705 -0.75634,1.57142 -0.97164,2.1992 -0.97164,2.83312 0,0.33493 0.0375,0.53057 0.10671,0.55653 0.0587,0.022 1.5281,0.0522 3.26534,0.067 3.37494,0.0288 3.9058,0.0815 4.5425,0.45072 0.71467,0.41447 1.6465,1.84251 1.64664,2.52351 5e-5,0.23482 -0.10918,0.47386 -0.441,0.96502 -0.27728,0.41044 -0.44107,0.74393 -0.44107,0.89809 0,0.13979 0.18963,0.57379 0.44107,1.00946 0.60208,1.04322 0.58932,1.20134 -0.16415,2.03434 -0.66813,0.73865 -0.68909,0.92014 -0.23799,2.06083 0.406,1.02667 0.33203,1.2809 -0.69178,2.37754 -0.54024,0.57867 -0.68459,0.95515 -0.68459,1.78551 0,0.63402 -0.15816,0.94243 -0.79879,1.5576 -0.59397,0.57035 -1.3268,0.97738 -2.1242,1.17982 -0.5346,0.13572 -3.46766,0.22481 -4.88822,0.14848 z m -16.38176,-0.70588 c -0.13593,-0.0896 -0.32801,-0.2906 -0.42684,-0.44665 -0.17689,-0.27927 -0.18012,-0.36614 -0.20619,-5.53485 -0.0146,-2.88812 -0.002,-5.45795 0.0289,-5.71073 0.0451,-0.3746 0.11599,-0.5246 0.38302,-0.811 l 0.32763,-0.3514 1.99109,-0.024 c 2.29117,-0.0277 2.42967,0.005 2.77863,0.66539 l 0.1942,0.36725 -0.002,5.47149 c -0.002,5.21089 -0.01,5.48869 -0.16578,5.83254 -0.30386,0.66938 -0.44157,0.70545 -2.69219,0.70517 -1.78861,-2.2e-4 -1.98548,-0.0148 -2.21061,-0.16316 z"
         id="path4" /></g></g></svg>
